{
	"asset":{
		"generator":"Khronos glTF Blender I/O v4.0.44",
		"version":"2.0"
	},
	"scene":0,
	"scenes":[
		{
			"name":"Scene",
			"nodes":[
				0,
				1,
				2
			]
		}
	],
	"nodes":[
		{
			"mesh":0,
			"name":"Text",
			"scale":[
				8.059213638305664,
				8.059213638305664,
				8.059213638305664
			]
		},
		{
			"mesh":1,
			"name":"Cube",
			"rotation":[
				1,
				0,
				0,
				0
			],
			"scale":[
				-1.4499999284744263,
				-0.33000001311302185,
				-0.3499999940395355
			],
			"translation":[
				0,
				0,
				3.987644672393799
			]
		},
		{
			"mesh":2,
			"name":"Cube.001",
			"rotation":[
				0,
				1,
				0,
				0
			],
			"scale":[
				1.4499999284744263,
				0.33000001311302185,
				0.3499999940395355
			],
			"translation":[
				0,
				0,
				-4.013439655303955
			]
		}
	],
	"materials":[
		{
			"doubleSided":true,
			"name":"Material.001",
			"pbrMetallicRoughness":{
				"baseColorFactor":[
					0.800000011920929,
					0.800000011920929,
					0.800000011920929,
					1
				],
				"metallicFactor":0,
				"roughnessFactor":0.5
			}
		},
		{
			"doubleSided":true,
			"name":"Material.002",
			"pbrMetallicRoughness":{
				"baseColorFactor":[
					0.800000011920929,
					0.800000011920929,
					0.800000011920929,
					1
				],
				"metallicFactor":0,
				"roughnessFactor":0.5
			}
		},
		{
			"doubleSided":true,
			"name":"Material.003",
			"pbrMetallicRoughness":{
				"baseColorFactor":[
					0.800000011920929,
					0.800000011920929,
					0.800000011920929,
					1
				],
				"metallicFactor":0,
				"roughnessFactor":0.5
			}
		}
	],
	"meshes":[
		{
			"name":"Text",
			"primitives":[
				{
					"attributes":{
						"POSITION":0,
						"NORMAL":1,
						"TEXCOORD_0":2
					},
					"indices":3,
					"material":0
				}
			]
		},
		{
			"name":"Cube.002",
			"primitives":[
				{
					"attributes":{
						"POSITION":4,
						"NORMAL":5,
						"TEXCOORD_0":6
					},
					"indices":7,
					"material":1
				}
			]
		},
		{
			"name":"Cube.005",
			"primitives":[
				{
					"attributes":{
						"POSITION":8,
						"NORMAL":9,
						"TEXCOORD_0":10
					},
					"indices":7,
					"material":2
				}
			]
		}
	],
	"accessors":[
		{
			"bufferView":0,
			"componentType":5126,
			"count":410,
			"max":[
				0.31150001287460327,
				0.03999999910593033,
				0.3500000238418579
			],
			"min":[
				-0.31150001287460327,
				-0.03999999910593033,
				-0.3500000238418579
			],
			"type":"VEC3"
		},
		{
			"bufferView":1,
			"componentType":5126,
			"count":410,
			"type":"VEC3"
		},
		{
			"bufferView":2,
			"componentType":5126,
			"count":410,
			"type":"VEC2"
		},
		{
			"bufferView":3,
			"componentType":5123,
			"count":1212,
			"type":"SCALAR"
		},
		{
			"bufferView":4,
			"componentType":5126,
			"count":80,
			"max":[
				1.646798014640808,
				1,
				1
			],
			"min":[
				-1.7161861658096313,
				-1,
				-2.9597349166870117
			],
			"type":"VEC3"
		},
		{
			"bufferView":5,
			"componentType":5126,
			"count":80,
			"type":"VEC3"
		},
		{
			"bufferView":6,
			"componentType":5126,
			"count":80,
			"type":"VEC2"
		},
		{
			"bufferView":7,
			"componentType":5123,
			"count":132,
			"type":"SCALAR"
		},
		{
			"bufferView":8,
			"componentType":5126,
			"count":80,
			"max":[
				1.646798014640808,
				1,
				1
			],
			"min":[
				-1.7161861658096313,
				-1,
				-2.9597349166870117
			],
			"type":"VEC3"
		},
		{
			"bufferView":9,
			"componentType":5126,
			"count":80,
			"type":"VEC3"
		},
		{
			"bufferView":10,
			"componentType":5126,
			"count":80,
			"type":"VEC2"
		}
	],
	"bufferViews":[
		{
			"buffer":0,
			"byteLength":4920,
			"byteOffset":0,
			"target":34962
		},
		{
			"buffer":0,
			"byteLength":4920,
			"byteOffset":4920,
			"target":34962
		},
		{
			"buffer":0,
			"byteLength":3280,
			"byteOffset":9840,
			"target":34962
		},
		{
			"buffer":0,
			"byteLength":2424,
			"byteOffset":13120,
			"target":34963
		},
		{
			"buffer":0,
			"byteLength":960,
			"byteOffset":15544,
			"target":34962
		},
		{
			"buffer":0,
			"byteLength":960,
			"byteOffset":16504,
			"target":34962
		},
		{
			"buffer":0,
			"byteLength":640,
			"byteOffset":17464,
			"target":34962
		},
		{
			"buffer":0,
			"byteLength":264,
			"byteOffset":18104,
			"target":34963
		},
		{
			"buffer":0,
			"byteLength":960,
			"byteOffset":18368,
			"target":34962
		},
		{
			"buffer":0,
			"byteLength":960,
			"byteOffset":19328,
			"target":34962
		},
		{
			"buffer":0,
			"byteLength":640,
			"byteOffset":20288,
			"target":34962
		}
	],
	"buffers":[
		{
			"byteLength":20928,
			"uri":"GreylynLogo.bin"
		}
	]
}
