<svg xmlns="http://www.w3.org/2000/svg" version="1.1" xmlns:xlink="http://www.w3.org/1999/xlink" xmlns:svgjs="http://svgjs.dev/svgjs" width="1500" height="1500" viewBox="0 0 1500 1500"><rect width="1500" height="1500" fill="#000000"></rect><g transform="matrix(0.33478406427854035,0,0,0.33478406427854035,498.18138460114494,250.40485829959528)"><svg viewBox="0 0 124 247" data-background-color="#ffffff" preserveAspectRatio="xMidYMid meet" height="2987" width="1500" xmlns="http://www.w3.org/2000/svg" xmlns:xlink="http://www.w3.org/1999/xlink"><g id="tight-bounds" transform="matrix(1,0,0,1,0.18551332139696797,-0.09999999999999432)"><svg viewBox="0 0 123.63414297689138 247.2" height="247.2" width="123.63414297689138"><g><svg></svg></g><g><svg viewBox="0 0 123.63414297689138 247.2" height="247.2" width="123.63414297689138"><g transform="matrix(1,0,0,1,0,47.215199999999996)"><svg viewBox="0 0 123.63414297689138 152.7696" height="152.7696" width="123.63414297689138"><g><svg viewBox="0 0 123.63414297689138 152.7696" height="152.7696" width="123.63414297689138"><g><svg viewBox="0 0 123.63414297689138 152.7696" height="152.7696" width="123.63414297689138"><g><svg viewBox="0 0 123.63414297689138 152.7696" height="152.7696" width="123.63414297689138"><g id="textblocktransform"><svg viewBox="0 0 123.63414297689138 152.7696" height="152.7696" width="123.63414297689138" id="textblock"><g><svg viewBox="0 0 123.63414297689138 152.7696" height="152.7696" width="123.63414297689138"><g transform="matrix(1,0,0,1,0,0)"><svg width="123.63414297689138" viewBox="2.83 -33.75224609375 27.68 34.212246093750004" height="152.7696" data-palette-color="#89939e"><path d="M26.64-13.98L19.21-13.98 19.21-17.42 30.51-17.42 30.51-1.24Q27.78-0.38 25.05 0.04 22.32 0.46 18.81 0.46L18.81 0.46Q11.22 0.46 7.03-4.03 2.83-8.52 2.83-16.63L2.83-16.63Q2.78-21.79 4.89-25.7 7-29.6 10.95-31.71 14.89-33.82 20.1-33.75L20.1-33.75Q25.43-33.75 30.01-31.77L30.01-31.77 28.51-28.36Q24.04-30.28 19.84-30.28L19.84-30.28Q13.75-30.28 10.34-26.67 6.93-23.05 6.93-16.47 6.93-9.88 10.22-6.41 13.52-2.93 19.89-2.93L19.89-2.93Q23.28-2.93 26.64-3.74L26.64-3.74 26.64-13.98Z" opacity="1" transform="matrix(1,0,0,1,0,0)" fill="#ffffff" class="wordmark-text-0" data-fill-palette-color="primary" id="text-0"></path></svg></g></svg></g></svg></g></svg></g><g></g></svg></g></svg></g></svg></g><path d="M0 41.215L0 1 123.634 1 123.634 41.215 109.857 41.215 109.857 14.777 13.777 14.777 13.777 41.215 0 41.215M0 205.985L0 246.2 123.634 246.2 123.634 205.985 109.857 205.985 109.857 232.423 13.777 232.423 13.777 205.985 0 205.985" fill="#ffffff" stroke="transparent" data-fill-palette-color="tertiary"></path></svg></g><defs></defs></svg><rect width="123.63414297689138" height="247.2" fill="none" stroke="none" visibility="hidden"></rect></g></svg></g></svg>